/* XPM */
static const char *mdash[] = {
/* columns rows colors chars-per-pixel */
"48 48 193 2 ",
"   c black",
".  c #010101",
"X  c gray1",
"o  c gray3",
"O  c #090909",
"+  c gray4",
"@  c #0B0B0B",
"#  c #0C0C0C",
"$  c gray5",
"%  c #0E0E0E",
"&  c gray6",
"*  c #111111",
"=  c gray7",
"-  c #151515",
";  c #161616",
":  c #181818",
">  c gray10",
",  c #1B1B1B",
"<  c gray11",
"1  c gray12",
"2  c #222222",
"3  c gray14",
"4  c #252525",
"5  c #272727",
"6  c #282828",
"7  c #2A2A2A",
"8  c gray17",
"9  c #2D2D2D",
"0  c #2F322F",
"q  c gray22",
"w  c gray23",
"e  c #3C3C3C",
"r  c #047404",
"t  c #067406",
"y  c #027A02",
"u  c #037B03",
"i  c #007E00",
"p  c #007F00",
"a  c #027C02",
"s  c #027D02",
"d  c #047804",
"f  c #057805",
"g  c #077D07",
"h  c #0A770A",
"j  c #097B09",
"k  c #0A790A",
"l  c #196F19",
"z  c #117311",
"x  c #127412",
"c  c #127A12",
"v  c #137A13",
"b  c #127E12",
"n  c #1A711A",
"m  c #1D7D1D",
"M  c #207220",
"N  c #207820",
"B  c #227922",
"V  c #277A27",
"C  c #2A7C2A",
"Z  c #2B7D2B",
"A  c #444444",
"S  c gray27",
"D  c #464646",
"F  c #484848",
"G  c #4B4B4B",
"H  c gray31",
"J  c #515151",
"K  c gray33",
"L  c #555555",
"P  c #555C55",
"I  c #5D5D5D",
"U  c gray37",
"Y  c #5F5F5F",
"T  c gray40",
"R  c DimGray",
"E  c gray43",
"W  c gray44",
"Q  c #717171",
"!  c #727272",
"~  c #777777",
"^  c gray49",
"/  c gray50",
"(  c #008000",
")  c #268126",
"_  c #2C852C",
"`  c #338733",
"'  c #358135",
"]  c #358A35",
"[  c #388338",
"{  c #398339",
"}  c #3B803B",
"|  c #388438",
" . c #448A44",
".. c #458A45",
"X. c #4C8A4C",
"o. c #4D8B4D",
"O. c #469246",
"+. c #529052",
"@. c #539053",
"#. c #549154",
"$. c #559055",
"%. c #559255",
"&. c #569356",
"*. c #549954",
"=. c #569A56",
"-. c #5A945A",
";. c #5C955C",
":. c #679B67",
">. c #689C68",
",. c #7A997A",
"<. c #838383",
"1. c gray52",
"2. c gray58",
"3. c #959595",
"4. c #979797",
"5. c #9A9A9A",
"6. c gray61",
"7. c #9F9F9F",
"8. c #81A581",
"9. c #84A784",
"0. c #82AE82",
"q. c #84A884",
"w. c #86A886",
"e. c #85AE85",
"r. c #95B095",
"t. c #95B195",
"y. c #96B296",
"u. c #9AB69A",
"i. c #9BBB9B",
"p. c #9FB89F",
"a. c #A0A0A0",
"s. c gray63",
"d. c #A2A2A2",
"f. c gray65",
"g. c #A7A7A7",
"h. c #A9A9A9",
"j. c #A4BBA4",
"k. c #ABBFAB",
"l. c #B2B2B2",
"z. c #B4B4B4",
"x. c #B6B6B6",
"c. c #BBBBBB",
"v. c gray75",
"b. c #A7C1A7",
"n. c #ADC1AD",
"m. c #ADC7AD",
"M. c #B9C9B9",
"N. c #BACEBA",
"B. c #BDC8BD",
"V. c #BEC9BE",
"C. c #BCCCBC",
"Z. c #BDCCBD",
"A. c #C6C6C6",
"S. c gray79",
"D. c #CACACA",
"F. c #C7D4C7",
"G. c #C9D5C9",
"H. c #CBD6CB",
"J. c #CCD6CC",
"K. c #CEDBCE",
"L. c LightGray",
"P. c gray83",
"I. c #D5D5D5",
"U. c gray84",
"Y. c #D8D8D8",
"T. c gray86",
"R. c #DBDFDB",
"E. c gainsboro",
"W. c #DDDDDD",
"Q. c gray87",
"!. c #DCE0DC",
"~. c #E2E2E2",
"^. c #E1E6E1",
"/. c gray90",
"(. c #E7E7E7",
"). c #E6E9E6",
"_. c #EAEAEA",
"`. c gray92",
"'. c #ECECEC",
"]. c #EEEEEE",
"[. c #F1F1F1",
"{. c #F4F4F4",
"}. c gray96",
"|. c #F5F6F5",
" X c #F6F6F6",
".X c #F8F8F8",
"XX c #F9F9F9",
"oX c gray98",
"OX c #FBFBFB",
"+X c gray99",
"@X c #FDFDFD",
"#X c #FEFEFE",
"$X c white",
/* pixels */
"$X$X$X$X$X$X$X$X$X$X$X$X$X$X$X$X$X$X$X$X$X$X$X$X$X$X$X$X$X$X$X$X$X$X$X$X$X$X$X$X$X$X#X`.$X$X$X$X",
"$X$X$X$X$X$X$X$X$X$X$X$X$X$X$X$X$X$X$X$X$X$X$X$X$X$X$X$X$X$X$X$X$X$X$X$X$X$X$X$X@X8.N r V t.$X$X",
"$X$X$X$X$X$X$X$X$X$X$X$X$X$X$X$X$X$X$X$X$X$X$X$X$X$X$X$X$X$X$X$X$X$X$X$X$X$X$X$X9.p ( ( ( a p.$X",
"$X$X$X$X$X$X$X$X$X$X$X$X$X$X$X$X$X$X$X$X$X$X$X$X$X$X$X$X$X$X$X$X$X$X$X$X$X$X$X$XZ ( ( ( ( (  .$X",
"$X$X$X$X$X$X$X$X$X$X$X$X$X$X$X$X$X$X$X$X$X$X$X$X$X$X$X$X$X$X$X$X$X$X$X$X$X$X$XoXx ( ( ( ( ( Z $X",
"$X$X$X$X$X$X$X$X$X$X$X$X$X$X$X$X$X$X$X$X$X$X$X$X$X$X$X$X$X$X$X$X$X$X$X$X$X$X$X$X{ ( ( ( ( ( @.$X",
"$X$X$X$X$X$X$X$X$X$X$X$X$X$X$X$X$X$X$X$X$X$X$X$X$X$X$X$X$X$X$X$X$X$X$X$X$X$X$X$Xk.k ( ( ( v G.$X",
"$X$X$X$X$X$X$X$X$X$X$X$X$X$X$X$X$X$X$X$X$X$X$X$X$X$X$X$X$X$X$X$X$X$X$X$X$X$X$X$X<.P %.| ;.J.$X$X",
"$X$X$X$X$X$X$X$X$X$X$X$X$X$X$X$X$X$X$X$X$X$X$X$X$X$X$X$X$X$X$X$X$X$X$X$X$X$X$XY.- ~.$X$X$X$X$X$X",
"$X$X$X$X$X$X$X$X$X$X$X$X$X$X$X$X$X$X$X$X$X$X$X$X$X$X$X$X$X$X$X$X$X$X$X$X$X$X@Xe 3.$X$X$X$X$X$X$X",
"$X$X$X$X$X$X$X$X$X$X$X$X$X$X$X$X$X$X$X$X$X$X$X$X$X$X$X$X$X$X$X$X$X$X$X$X$X$X2.q @X$X$X$X$X$X$X$X",
"$X$X$X$X$X$X$X$X$X$X$X$X$X$X$X$X$X$X$X$X$X$X$X$X$X$X$X$X$X$X$X$X$X$X$X$X$X/.; I.$X$X$X$X$X$X$X$X",
"$X$X$X$X$X$X$X$X$X$X$X$X$X$X$X$X$X$X$XD.OX$X$X$X$X$X$X$X$X$X$X$X$X$X$X$X$XH <.$X$X$X$X$X$X$X$X$X",
"$X$X$X$X$X$X$X$X$X$X$X$X$X$X$X$X$X$XoX, 1.$X$X$X$X$X$X$X$X$X$X$X$X$X$X$Xf.9 XX$X$X$X$X$X$X$X$X$X",
"$X$X$X$X$X$X$X$X$X$X$X$X$X$X$X$X$X$X1.O , A.P.XX$X$X$X$X$X$X$X$X$X$X$X'.: A.$X$X$X$X$X$X$X$X$X$X",
"$X$X$X$X$X$X$X$X$X$X$X$X$X$X$X$X$X].<         $ E [.$X$X$X$X$X$X$X$X$XI ! $X$X$X$X$X$X$X$X$X$X$X",
"$X$X$X$X$X$X$X$X$X$X$X$X$X$X$X$X$XY X     * g.4.> 8 _.$X$X$X$XN.*.] $.0 {.$X$X$X$X$X$X$X$X$X$X$X",
"$X$X$X$X$X$X$X$X$X$X$X$X$X$X$X$XT.o , 1 2 < e #X(.5 G $X$X$Xm.g ( ( ( b K.$X$X$X$X$X$X$X$X$X$X$X",
"$X$X$X$X$X$X$X$X$X$X$X$X$X$X$X$X$X$X$X$X$X$X$X$X$XS.. v.$X$X` ( ( ( ( ( =.$X$X$X$X$X$X$X$X$X$X$X",
"$X$X$X$X$X$X$X$X$X$X$X$X$X$X$X$X$X$X$X$X$X$X$X$X$X$XF L $X}.h ( ( ( ( ( _ $X$X$X$X$X$X$X$X$X$X$X",
"$X$X$X$X$X$X$X$X$X$X$X$X$X$X$X$X$X$X$X$X$X$X$X$X$X{.R & D & B ( ( ( ( ( O.$X$X$X$X$X$X$X$X$X$X$X",
"$X$X$X$X$X$X$X$X$X$X$X|.q.&.:.Z.$X$X$X$X$X(.l.~ w @ 4   d.`.e.( ( ( ( s b.$X$X$X$X$X$X$X$X$X$X$X",
"$X$X$X$X$X$X$X$X$X$X|.} ( ( ( j u.W.s.T 7 % A / c. Xx.  oX$X+X0.m y ) i.$X$X$X$X$X$X$X$X$X$X$X$X",
"$X$X$X$X$X$X$X$X$X$Xq.( ( ( ( ( l 3 U 5.I.#X$X$X$X$X7.# $X$X$X$X#X).$X$X$X$X$X$X$X$X$X$X$X$X$X$X",
"$X$X$X$X$X$X$X$X$X$X&.( ( ( ( ( i B.$X$X$X$X$X$X$X$XK J $X$X$X$X$X$X$X$X$X$X$X$X$X$X$X$X$X$X$X$X",
"$X$X$X$X$X$X$X$X$X$X>.( ( ( ( ( f !.$X$X$X$X$X$X$X/.+ s.$X$X$X$X$X$X$X$X$X$X$X$X$X$X$X$X$X$X$X$X",
"$X$X$X$X$X$X$X$X$X$XC.j ( ( ( ( o.$X$X$X$X$X$X$XXXS 6 XX$X$X$X$X$X$X$X$X$X$X$X$X$X$X$X$X$X$X$X$X",
"$X$X$X$X$X$X$X$X$X$X$Xr.n i d X.^.$X$X$X$X+X$XS.w = L.$X$X$X$X$X$X$X$X$X$X$X$X$X$X$X$X$X$X$X$X$X",
"$X$X$X$X$X$X$X$X$X$X$X6.L V.R.$X$X$X$X$XU.o @   e Y.$X$X$X$X$X$X$X$X$X$X$X$X$X$X$X$X$X$X$X$X$X$X",
"$X$X$X$X$X$X$X$X$X$X$Xq z.$X$X$X$X$X$X$X'.g.a.L.$X$X$X$X$X$X$X$X$X$X$X$X$X$X$X$X$X$X$X$X$X$X$X$X",
"$X$X$X$X$X$X$X$X$X$XL.< +X$X$X$X$X$X$X$X$X$X$X$X$X$X$X$X$X$X$X$X$X$X$X$X$X$X$X$X$X$X$X$X$X$X$X$X",
"$X$X$X$X$X$X$X$X$X$XW ^ $X$X$X$X$X$X$X$X$X$X$X$X$X$X$X$X$X$X$X$X$X$X$X$X$X$X$X$X$X$X$X$X$X$X$X$X",
"$X$X$X$X$X$X$X$X$XXX; E.$X$X$X$X$X$X$X$X$X$X$X$X$X$X$X$X$X$X$X$X$X$X$X$X$X$X$X$X$X$X$X$X$X$X$X$X",
"$X$X$X$X$X$X$X$X$Xg.D $X$X$X$X$X$X$X$X$X$X$X$X$X$X$X$X$X$X$X$X$X$X$X$X$X$X$X$X$X$X$X$X$X$X$X$X$X",
"$X$X$X$X$X$X$X$X$XA h.$X$X$X$X$X$X$X$X$X$X$X$X$X$X$X$X$X$X$X$X$X$X$X$X$X$X$X$X$X$X$X$X$X$X$X$X$X",
"$X$X$X$X$X$X$X$XQ.- .X$X$X$X$X$X$X$X$X$X$X$X$X$X$X$X$X$X$X$X$X$X$X$X$X$X$X$X$X$X$X$X$X$X$X$X$X$X",
"$X$X$X$X$X$X$X].^ Q $X$X$X$X$X$X$X$X$X$X$X$X$X$X$X$X$X$X$X$X$X$X$X$X$X$X$X$X$X$X$X$X$X$X$X$X$X$X",
"$X$X$X$X$Xy.C t M ,.@X$X$X$X$X$X$X$X$X$X$X$X$X$X$X$X$X$X$X$X$X$X$X$X$X$X$X$X$X$X$X$X$X$X$X$X$X$X",
"$X$X$X$Xj.u ( ( ( i w.$X$X$X$X$X$X$X$X$X$X$X$X$X$X$X$X$X$X$X$X$X$X$X$X$X$X$X$X$X$X$X$X$X$X$X$X$X",
"$X$X$X$X..( ( ( ( ( Z $X$X$X$X$X$X$X$X$X$X$X$X$X$X$X$X$X$X$X$X$X$X$X$X$X$X$X$X$X$X$X$X$X$X$X$X$X",
"$X$X$X$XZ ( ( ( ( ( z XX$X$X$X$X$X$X$X$X$X$X$X$X$X$X$X$X$X$X$X$X$X$X$X$X$X$X$X$X$X$X$X$X$X$X$X$X",
"$X$X$X$X+.( ( ( ( ( [ $X$X$X$X$X$X$X$X$X$X$X$X$X$X$X$X$X$X$X$X$X$X$X$X$X$X$X$X$X$X$X$X$X$X$X$X$X",
"$X$X$X$XF.c ( ( ( j n.$X$X$X$X$X$X$X$X$X$X$X$X$X$X$X$X$X$X$X$X$X$X$X$X$X$X$X$X$X$X$X$X$X$X$X$X$X",
"$X$X$X$X$XH.-.' #.M.$X$X$X$X$X$X$X$X$X$X$X$X$X$X$X$X$X$X$X$X$X$X$X$X$X$X$X$X$X$X$X$X$X$X$X$X$X$X",
"$X$X$X$X$X$X$X$X$X$X$X$X$X$X$X$X$X$X$X$X$X$X$X$X$X$X$X$X$X$X$X$X$X$X$X$X$X$X$X$X$X$X$X$X$X$X$X$X",
"$X$X$X$X$X$X$X$X$X$X$X$X$X$X$X$X$X$X$X$X$X$X$X$X$X$X$X$X$X$X$X$X$X$X$X$X$X$X$X$X$X$X$X$X$X$X$X$X",
"$X$X$X$X$X$X$X$X$X$X$X$X$X$X$X$X$X$X$X$X$X$X$X$X$X$X$X$X$X$X$X$X$X$X$X$X$X$X$X$X$X$X$X$X$X$X$X$X",
"$X$X$X$X$X$X$X$X$X$X$X$X$X$X$X$X$X$X$X$X$X$X$X$X$X$X$X$X$X$X$X$X$X$X$X$X$X$X$X$X$X$X$X$X$X$X$X$X"
};
